<svg width="8" height="27" viewBox="0 0 8 27" fill="none" xmlns="http://www.w3.org/2000/svg">
<path d="M3.8 26.6C5.89868 26.6 7.6 24.8987 7.6 22.8C7.6 20.7013 5.89868 19 3.8 19C1.70132 19 0 20.7013 0 22.8C0 24.8987 1.70132 26.6 3.8 26.6Z" fill="white"/>
<path d="M3.8 17.1C5.89868 17.1 7.6 15.3987 7.6 13.3C7.6 11.2013 5.89868 9.5 3.8 9.5C1.70132 9.5 0 11.2013 0 13.3C0 15.3987 1.70132 17.1 3.8 17.1Z" fill="white"/>
<path d="M3.8 7.6C5.89868 7.6 7.6 5.89868 7.6 3.8C7.6 1.70132 5.89868 0 3.8 0C1.70132 0 0 1.70132 0 3.8C0 5.89868 1.70132 7.6 3.8 7.6Z" fill="white"/>
</svg>
